<svg id="visual" viewBox="0 0 900 150" width="900" height="150" xmlns="http://www.w3.org/2000/svg" xmlns:xlink="http://www.w3.org/1999/xlink" version="1.1"><rect x="0" y="0" width="900" height="150" fill="#FFB444"></rect><path d="M0 22L21.5 26.3C43 30.7 86 39.3 128.8 44.2C171.7 49 214.3 50 257.2 49.5C300 49 343 47 385.8 41.5C428.7 36 471.3 27 514.2 23.2C557 19.3 600 20.7 642.8 26.5C685.7 32.3 728.3 42.7 771.2 48.2C814 53.7 857 54.3 878.5 54.7L900 55L900 0L878.5 0C857 0 814 0 771.2 0C728.3 0 685.7 0 642.8 0C600 0 557 0 514.2 0C471.3 0 428.7 0 385.8 0C343 0 300 0 257.2 0C214.3 0 171.7 0 128.8 0C86 0 43 0 21.5 0L0 0Z" fill="#ffffff" stroke-linecap="round" stroke-linejoin="miter"></path></svg>