<svg id="visual" viewBox="0 0 900 150" width="900" height="150" xmlns="http://www.w3.org/2000/svg" xmlns:xlink="http://www.w3.org/1999/xlink" version="1.1"><rect x="0" y="0" width="900" height="150" fill="#FFB444"></rect><path d="M0 126L21.5 121.7C43 117.3 86 108.7 128.8 103.8C171.7 99 214.3 98 257.2 98.5C300 99 343 101 385.8 106.5C428.7 112 471.3 121 514.2 124.8C557 128.7 600 127.3 642.8 121.5C685.7 115.7 728.3 105.3 771.2 99.8C814 94.3 857 93.7 878.5 93.3L900 93L900 151L878.5 151C857 151 814 151 771.2 151C728.3 151 685.7 151 642.8 151C600 151 557 151 514.2 151C471.3 151 428.7 151 385.8 151C343 151 300 151 257.2 151C214.3 151 171.7 151 128.8 151C86 151 43 151 21.5 151L0 151Z" fill="#ffffff" stroke-linecap="round" stroke-linejoin="miter"></path></svg>